<svg xmlns="http://www.w3.org/2000/svg" xmlns:xlink="http://www.w3.org/1999/xlink" width="512" zoomAndPan="magnify" viewBox="0 0 384 383.999986" height="512" preserveAspectRatio="xMidYMid meet" version="1.0"><defs><clipPath id="cfc360eec0"><path d="M 11.488281 9.019531 L 375.238281 9.019531 L 375.238281 372.769531 L 11.488281 372.769531 Z M 11.488281 9.019531 " clip-rule="nonzero"/></clipPath></defs><rect x="-38.4" width="460.8" fill="#ffffff" y="-38.399999" height="460.799983" fill-opacity="1"/><rect x="-38.4" width="460.8" fill="#ffffff" y="-38.399999" height="460.799983" fill-opacity="1"/><rect x="-38.4" width="460.8" fill="#ffffff" y="-38.399999" height="460.799983" fill-opacity="1"/><g clip-path="url(#cfc360eec0)"><path fill="#000000" d="M 375.238281 190.894531 C 375.238281 193.871094 375.167969 196.847656 375.019531 199.820312 C 374.875 202.792969 374.65625 205.757812 374.363281 208.722656 C 374.070312 211.683594 373.707031 214.636719 373.269531 217.582031 C 372.832031 220.527344 372.324219 223.457031 371.746094 226.375 C 371.164062 229.296875 370.511719 232.199219 369.789062 235.085938 C 369.066406 237.972656 368.273438 240.84375 367.40625 243.691406 C 366.542969 246.539062 365.609375 249.363281 364.609375 252.167969 C 363.605469 254.96875 362.535156 257.746094 361.394531 260.496094 C 360.253906 263.246094 359.050781 265.964844 357.777344 268.65625 C 356.503906 271.347656 355.167969 274.003906 353.761719 276.628906 C 352.359375 279.253906 350.894531 281.84375 349.363281 284.398438 C 347.832031 286.949219 346.242188 289.464844 344.585938 291.9375 C 342.933594 294.414062 341.21875 296.847656 339.449219 299.238281 C 337.675781 301.628906 335.84375 303.972656 333.957031 306.273438 C 332.066406 308.574219 330.125 310.828125 328.125 313.035156 C 326.125 315.238281 324.074219 317.394531 321.96875 319.5 C 319.863281 321.605469 317.710938 323.65625 315.503906 325.65625 C 313.296875 327.652344 311.046875 329.597656 308.746094 331.484375 C 306.445312 333.375 304.097656 335.203125 301.707031 336.976562 C 299.316406 338.75 296.882812 340.464844 294.410156 342.117188 C 291.933594 343.773438 289.417969 345.363281 286.867188 346.894531 C 284.3125 348.425781 281.722656 349.890625 279.097656 351.292969 C 276.472656 352.699219 273.816406 354.035156 271.125 355.308594 C 268.433594 356.582031 265.714844 357.785156 262.964844 358.925781 C 260.214844 360.066406 257.4375 361.136719 254.636719 362.136719 C 251.832031 363.140625 249.007812 364.074219 246.160156 364.9375 C 243.3125 365.800781 240.445312 366.597656 237.554688 367.320312 C 234.667969 368.042969 231.765625 368.695312 228.847656 369.273438 C 225.925781 369.855469 222.996094 370.363281 220.050781 370.800781 C 217.105469 371.238281 214.152344 371.601562 211.191406 371.894531 C 208.230469 372.1875 205.261719 372.40625 202.289062 372.550781 C 199.316406 372.695312 196.339844 372.769531 193.363281 372.769531 C 190.386719 372.769531 187.414062 372.695312 184.441406 372.550781 C 181.46875 372.40625 178.5 372.1875 175.539062 371.894531 C 172.574219 371.601562 169.621094 371.238281 166.675781 370.800781 C 163.734375 370.363281 160.800781 369.855469 157.882812 369.273438 C 154.960938 368.695312 152.058594 368.042969 149.171875 367.320312 C 146.285156 366.597656 143.417969 365.800781 140.570312 364.9375 C 137.71875 364.074219 134.894531 363.140625 132.09375 362.136719 C 129.289062 361.136719 126.511719 360.066406 123.761719 358.925781 C 121.015625 357.785156 118.292969 356.582031 115.601562 355.308594 C 112.910156 354.035156 110.253906 352.699219 107.628906 351.292969 C 105.003906 349.890625 102.414062 348.425781 99.863281 346.894531 C 97.308594 345.363281 94.792969 343.773438 92.320312 342.117188 C 89.84375 340.464844 87.414062 338.75 85.019531 336.976562 C 82.628906 335.203125 80.285156 333.375 77.984375 331.484375 C 75.683594 329.597656 73.429688 327.652344 71.222656 325.65625 C 69.019531 323.65625 66.863281 321.605469 64.757812 319.5 C 62.65625 317.394531 60.601562 315.238281 58.605469 313.035156 C 56.605469 310.828125 54.660156 308.574219 52.773438 306.273438 C 50.882812 303.972656 49.054688 301.628906 47.28125 299.238281 C 45.507812 296.847656 43.792969 294.414062 42.140625 291.9375 C 40.488281 289.464844 38.894531 286.949219 37.363281 284.398438 C 35.835938 281.84375 34.367188 279.253906 32.964844 276.628906 C 31.5625 274.003906 30.222656 271.347656 28.949219 268.65625 C 27.679688 265.964844 26.472656 263.246094 25.332031 260.496094 C 24.195312 257.746094 23.125 254.96875 22.121094 252.167969 C 21.117188 249.363281 20.183594 246.539062 19.320312 243.691406 C 18.457031 240.84375 17.664062 237.972656 16.941406 235.085938 C 16.214844 232.199219 15.566406 229.296875 14.984375 226.375 C 14.402344 223.457031 13.894531 220.527344 13.457031 217.582031 C 13.019531 214.636719 12.65625 211.683594 12.363281 208.722656 C 12.074219 205.757812 11.855469 202.792969 11.707031 199.820312 C 11.5625 196.847656 11.488281 193.871094 11.488281 190.894531 C 11.488281 187.917969 11.5625 184.945312 11.707031 181.972656 C 11.855469 178.996094 12.074219 176.03125 12.363281 173.066406 C 12.65625 170.105469 13.019531 167.152344 13.457031 164.207031 C 13.894531 161.265625 14.402344 158.332031 14.984375 155.414062 C 15.566406 152.492188 16.214844 149.589844 16.941406 146.703125 C 17.664062 143.816406 18.457031 140.949219 19.320312 138.097656 C 20.183594 135.25 21.117188 132.425781 22.121094 129.625 C 23.125 126.820312 24.195312 124.042969 25.332031 121.292969 C 26.472656 118.542969 27.679688 115.824219 28.949219 113.132812 C 30.222656 110.441406 31.5625 107.785156 32.964844 105.160156 C 34.367188 102.535156 35.835938 99.945312 37.363281 97.390625 C 38.894531 94.839844 40.488281 92.324219 42.140625 89.851562 C 43.792969 87.375 45.507812 84.941406 47.28125 82.550781 C 49.054688 80.160156 50.882812 77.816406 52.773438 75.515625 C 54.660156 73.214844 56.605469 70.960938 58.605469 68.753906 C 60.601562 66.550781 62.65625 64.394531 64.757812 62.289062 C 66.863281 60.183594 69.019531 58.132812 71.222656 56.132812 C 73.429688 54.136719 75.683594 52.191406 77.984375 50.304688 C 80.285156 48.414062 82.628906 46.585938 85.019531 44.8125 C 87.414062 43.039062 89.84375 41.324219 92.320312 39.671875 C 94.792969 38.019531 97.308594 36.425781 99.863281 34.894531 C 102.414062 33.367188 105.003906 31.898438 107.628906 30.496094 C 110.253906 29.09375 112.910156 27.753906 115.601562 26.480469 C 118.292969 25.210938 121.015625 24.003906 123.761719 22.863281 C 126.511719 21.726562 129.289062 20.65625 132.09375 19.652344 C 134.894531 18.648438 137.71875 17.714844 140.570312 16.851562 C 143.417969 15.988281 146.285156 15.195312 149.171875 14.46875 C 152.058594 13.746094 154.960938 13.09375 157.882812 12.515625 C 160.800781 11.933594 163.734375 11.425781 166.675781 10.988281 C 169.621094 10.550781 172.574219 10.1875 175.539062 9.894531 C 178.5 9.605469 181.46875 9.386719 184.441406 9.238281 C 187.414062 9.09375 190.386719 9.019531 193.363281 9.019531 C 196.339844 9.019531 199.316406 9.09375 202.289062 9.238281 C 205.261719 9.386719 208.230469 9.605469 211.191406 9.894531 C 214.152344 10.1875 217.105469 10.550781 220.050781 10.988281 C 222.996094 11.425781 225.925781 11.933594 228.847656 12.515625 C 231.765625 13.09375 234.667969 13.746094 237.554688 14.46875 C 240.445312 15.195312 243.3125 15.988281 246.160156 16.851562 C 249.007812 17.714844 251.832031 18.648438 254.636719 19.652344 C 257.4375 20.65625 260.214844 21.726562 262.964844 22.863281 C 265.714844 24.003906 268.433594 25.210938 271.125 26.480469 C 273.816406 27.753906 276.472656 29.09375 279.097656 30.496094 C 281.722656 31.898438 284.3125 33.367188 286.867188 34.894531 C 289.417969 36.425781 291.933594 38.019531 294.410156 39.671875 C 296.882812 41.324219 299.316406 43.039062 301.707031 44.8125 C 304.097656 46.585938 306.445312 48.414062 308.746094 50.304688 C 311.046875 52.191406 313.296875 54.136719 315.503906 56.132812 C 317.710938 58.132812 319.863281 60.183594 321.96875 62.289062 C 324.074219 64.394531 326.125 66.550781 328.125 68.753906 C 330.125 70.960938 332.066406 73.214844 333.957031 75.515625 C 335.84375 77.816406 337.675781 80.160156 339.449219 82.550781 C 341.21875 84.941406 342.933594 87.375 344.585938 89.851562 C 346.242188 92.324219 347.832031 94.839844 349.363281 97.390625 C 350.894531 99.945312 352.359375 102.535156 353.761719 105.160156 C 355.167969 107.785156 356.503906 110.441406 357.777344 113.132812 C 359.050781 115.824219 360.253906 118.542969 361.394531 121.292969 C 362.535156 124.042969 363.605469 126.820312 364.609375 129.625 C 365.609375 132.425781 366.542969 135.25 367.40625 138.097656 C 368.273438 140.949219 369.066406 143.816406 369.789062 146.703125 C 370.511719 149.589844 371.164062 152.492188 371.746094 155.414062 C 372.324219 158.332031 372.832031 161.265625 373.269531 164.207031 C 373.707031 167.152344 374.070312 170.105469 374.363281 173.066406 C 374.65625 176.03125 374.875 178.996094 375.019531 181.972656 C 375.167969 184.945312 375.238281 187.917969 375.238281 190.894531 Z M 375.238281 190.894531 " fill-opacity="1" fill-rule="nonzero"/></g><path fill="#ffffff" d="M 130.007812 273.683594 C 84.40625 273.738281 47.292969 236.695312 47.21875 191.050781 C 47.148438 145.3125 84.21875 108.136719 129.925781 108.105469 C 175.707031 108.085938 212.769531 145.167969 212.777344 191.019531 C 212.789062 236.582031 175.695312 273.632812 130.007812 273.675781 Z M 130.007812 273.683594 " fill-opacity="1" fill-rule="nonzero"/><path fill="#ffffff" d="M 303.976562 190.945312 C 303.859375 207.710938 301.398438 224.046875 294.882812 239.628906 C 291.855469 246.851562 287.980469 253.5625 282.585938 259.320312 C 278.667969 263.5 274.167969 266.855469 268.640625 268.570312 C 261.292969 270.847656 254.402344 269.570312 247.957031 265.527344 C 241.929688 261.734375 237.480469 256.421875 233.773438 250.4375 C 227.847656 240.851562 224.3125 230.355469 222.007812 219.402344 C 219.636719 208.167969 218.785156 196.796875 219.242188 185.34375 C 219.886719 169.390625 222.765625 153.90625 229.511719 139.304688 C 232.535156 132.746094 236.316406 126.675781 241.453125 121.53125 C 245.535156 117.457031 250.171875 114.269531 255.847656 112.855469 C 263.007812 111.058594 269.566406 112.648438 275.632812 116.617188 C 281.878906 120.703125 286.390625 126.367188 290.132812 132.714844 C 295.558594 141.933594 298.894531 151.941406 301.085938 162.367188 C 303.0625 171.792969 303.984375 181.332031 303.964844 190.96875 Z M 303.976562 190.945312 " fill-opacity="1" fill-rule="nonzero"/><path fill="#ffffff" d="M 308.546875 189.6875 C 308.964844 181.9375 309.253906 173.039062 309.941406 164.183594 C 310.773438 153.4375 312.238281 142.765625 315.511719 132.445312 C 316.394531 129.679688 317.652344 127.011719 318.941406 124.402344 C 319.523438 123.214844 320.488281 122.167969 321.464844 121.253906 C 323.148438 119.683594 325.25 119.640625 326.828125 121.304688 C 328.160156 122.707031 329.355469 124.328125 330.226562 126.042969 C 332.753906 130.960938 334.042969 136.3125 335.164062 141.695312 C 336.984375 150.40625 337.992188 159.21875 338.65625 168.082031 C 339.582031 180.347656 339.714844 192.628906 339.195312 204.914062 C 338.761719 215.253906 337.84375 225.566406 336.007812 235.761719 C 334.832031 242.289062 333.46875 248.78125 330.664062 254.851562 C 329.863281 256.578125 328.855469 258.28125 327.628906 259.726562 C 325.394531 262.386719 322.972656 262.335938 320.625 259.777344 C 318.523438 257.503906 317.371094 254.6875 316.320312 251.828125 C 314.140625 245.882812 312.757812 239.71875 311.882812 233.472656 C 310.917969 226.625 310.074219 219.746094 309.554688 212.855469 C 309.003906 205.527344 308.902344 198.160156 308.546875 189.667969 Z M 308.546875 189.6875 " fill-opacity="1" fill-rule="nonzero"/></svg>