<svg xmlns="http://www.w3.org/2000/svg" xmlns:xlink="http://www.w3.org/1999/xlink" width="500" zoomAndPan="magnify" viewBox="0 0 375 374.999991" height="500" preserveAspectRatio="xMidYMid meet" version="1.0"><defs><clipPath id="2caf3e1a35"><path d="M 189 144 L 337.5 144 L 337.5 294 L 189 294 Z M 189 144 " clip-rule="nonzero"/></clipPath><clipPath id="8eaacc9dec"><path d="M 37.5 178 L 187 178 L 187 327.375 L 37.5 327.375 Z M 37.5 178 " clip-rule="nonzero"/></clipPath><clipPath id="d020cda514"><path d="M 82 47.625 L 231 47.625 L 231 193 L 82 193 Z M 82 47.625 " clip-rule="nonzero"/></clipPath></defs><g clip-path="url(#2caf3e1a35)"><path fill="#000000" d="M 262.675781 144.753906 C 225.089844 144.753906 194.152344 172.699219 189.164062 208.957031 C 196.480469 221.929688 200.804688 236.898438 200.804688 253.195312 C 200.804688 255.523438 200.804688 257.851562 200.472656 260.183594 C 213.777344 280.472656 236.730469 293.777344 262.675781 293.777344 C 303.925781 293.445312 337.1875 260.183594 337.1875 219.265625 C 337.1875 178.351562 303.925781 144.753906 262.675781 144.753906 Z M 272.324219 255.859375 L 270.660156 256.191406 L 270.660156 264.507812 C 270.660156 266.5 268.996094 268.164062 267 268.164062 L 258.351562 268.164062 C 256.355469 268.164062 254.691406 266.5 254.691406 264.507812 L 254.691406 257.1875 L 252.699219 256.855469 C 246.042969 256.191406 239.722656 254.195312 235.398438 251.867188 C 233.738281 250.867188 233.070312 248.871094 233.738281 247.207031 L 237.0625 239.890625 C 237.394531 238.894531 238.394531 238.226562 239.058594 237.894531 C 239.390625 237.894531 239.722656 237.5625 240.058594 237.5625 C 240.722656 237.5625 241.386719 237.5625 241.71875 237.894531 C 246.710938 240.554688 253.695312 242.21875 260.015625 242.21875 C 267.332031 242.21875 272.988281 239.226562 272.988281 234.902344 C 272.988281 232.238281 271.324219 228.914062 259.683594 225.253906 C 247.042969 221.261719 234.402344 215.609375 234.402344 202.636719 C 234.402344 192.988281 241.386719 185.003906 253.363281 182.011719 L 255.027344 181.679688 L 255.027344 173.695312 C 255.027344 171.699219 256.6875 170.035156 258.683594 170.035156 L 267.332031 170.035156 C 269.328125 170.035156 270.992188 171.699219 270.992188 173.695312 L 270.992188 181.011719 L 272.988281 181.347656 C 277.976562 182.011719 282.636719 183.34375 286.625 185.003906 C 287.625 185.335938 288.289062 186.003906 288.621094 187 C 288.957031 188 288.957031 188.996094 288.621094 189.664062 L 285.296875 196.980469 C 284.628906 198.3125 283.300781 198.976562 281.96875 198.976562 C 281.304688 198.976562 280.972656 198.976562 280.304688 198.644531 C 277.976562 197.644531 272.65625 195.316406 264.339844 195.316406 C 256.6875 195.316406 253.363281 198.3125 253.363281 201.304688 C 253.363281 204.632812 257.023438 206.960938 268 210.617188 C 279.972656 214.609375 291.949219 220.265625 291.949219 234.234375 C 292.28125 241.886719 286.960938 252.199219 272.324219 255.859375 Z M 272.324219 255.859375 " fill-opacity="1" fill-rule="nonzero"/></g><g clip-path="url(#8eaacc9dec)"><path fill="#000000" d="M 112.324219 327.375 C 153.238281 327.375 186.835938 294.109375 186.835938 252.863281 C 186.835938 211.949219 153.570312 178.351562 112.324219 178.351562 C 71.074219 178.683594 37.8125 211.949219 37.8125 253.195312 C 37.8125 294.109375 71.074219 327.375 112.324219 327.375 Z M 83.050781 281.136719 L 86.378906 273.820312 C 86.710938 272.820312 87.707031 272.15625 88.375 271.824219 C 88.707031 271.824219 89.039062 271.492188 89.371094 271.492188 C 90.035156 271.492188 90.703125 271.492188 91.035156 271.824219 C 96.023438 274.484375 103.007812 276.148438 109.328125 276.148438 C 116.648438 276.148438 122.300781 273.15625 122.300781 268.832031 C 122.300781 266.167969 120.640625 262.84375 108.996094 259.183594 C 96.355469 255.191406 83.714844 249.539062 83.714844 236.5625 C 83.714844 226.917969 90.703125 218.933594 102.675781 215.941406 L 104.339844 215.609375 L 104.339844 207.625 C 104.339844 205.628906 106.003906 203.964844 108 203.964844 L 116.648438 203.964844 C 118.644531 203.964844 120.308594 205.628906 120.308594 207.625 L 120.308594 214.941406 L 122.300781 215.277344 C 127.292969 215.941406 131.949219 217.269531 135.941406 218.933594 C 136.9375 219.265625 137.605469 219.933594 137.9375 220.929688 C 138.269531 221.929688 138.269531 222.925781 137.9375 223.589844 L 134.609375 230.910156 C 133.945312 232.238281 132.613281 232.90625 131.285156 232.90625 C 130.617188 232.90625 130.285156 232.90625 129.621094 232.574219 C 127.292969 231.574219 121.96875 229.246094 113.652344 229.246094 C 106.003906 229.246094 102.675781 232.238281 102.675781 235.234375 C 102.675781 238.558594 106.335938 240.890625 117.3125 244.546875 C 129.289062 248.539062 141.261719 254.195312 141.261719 268.164062 C 141.261719 275.816406 135.941406 285.796875 121.304688 289.785156 L 119.640625 290.121094 L 119.640625 298.433594 C 119.640625 300.429688 117.976562 302.09375 115.984375 302.09375 L 107.332031 302.09375 C 105.339844 302.09375 103.675781 300.429688 103.675781 298.433594 L 103.675781 290.785156 L 101.679688 290.453125 C 95.027344 289.785156 88.707031 287.789062 84.382812 285.460938 C 82.71875 284.796875 82.054688 282.800781 83.050781 281.136719 Z M 83.050781 281.136719 " fill-opacity="1" fill-rule="nonzero"/></g><g clip-path="url(#d020cda514)"><path fill="#000000" d="M 112.324219 164.050781 C 138.269531 164.050781 161.554688 175.359375 177.851562 192.988281 C 185.835938 167.375 204.796875 146.75 229.078125 136.773438 C 230.078125 131.78125 230.742188 126.792969 230.742188 121.804688 C 230.742188 80.890625 197.480469 47.625 156.230469 47.625 C 115.316406 47.625 82.054688 80.890625 82.054688 122.136719 C 82.054688 138.4375 87.375 153.40625 96.355469 165.710938 C 101.347656 164.714844 106.667969 164.050781 112.324219 164.050781 Z M 127.292969 150.078125 L 130.617188 142.761719 C 130.953125 141.761719 131.949219 141.097656 132.613281 140.765625 C 132.945312 140.765625 133.28125 140.429688 133.613281 140.429688 C 134.277344 140.429688 134.941406 140.429688 135.277344 140.765625 C 140.265625 143.425781 147.25 145.089844 153.570312 145.089844 C 160.890625 145.089844 166.542969 142.09375 166.542969 137.769531 C 166.542969 135.109375 164.878906 131.78125 153.238281 128.125 C 140.597656 124.132812 127.957031 118.476562 127.957031 105.503906 C 127.957031 95.859375 134.941406 87.875 146.917969 84.878906 L 148.582031 84.546875 L 148.582031 76.566406 C 148.582031 74.570312 150.246094 72.90625 152.238281 72.90625 L 160.890625 72.90625 C 162.882812 72.90625 164.546875 74.570312 164.546875 76.566406 L 164.546875 83.882812 L 166.542969 84.214844 C 171.535156 84.878906 176.191406 86.210938 180.183594 87.875 C 181.179688 88.207031 181.84375 88.871094 182.175781 89.871094 C 182.511719 90.867188 182.511719 91.867188 182.175781 92.53125 L 178.851562 99.847656 C 178.1875 101.179688 176.855469 101.84375 175.523438 101.84375 C 174.859375 101.84375 174.527344 101.84375 173.863281 101.511719 C 171.535156 100.515625 166.210938 98.1875 157.894531 98.1875 C 150.246094 98.1875 146.917969 101.179688 146.917969 104.171875 C 146.917969 107.5 150.578125 109.828125 161.554688 113.488281 C 173.527344 117.480469 185.503906 123.132812 185.503906 137.105469 C 185.503906 144.753906 180.183594 154.734375 165.546875 158.726562 L 163.882812 159.058594 L 163.882812 167.375 C 163.882812 169.371094 162.21875 171.035156 160.222656 171.035156 L 151.574219 171.035156 C 149.578125 171.035156 147.914062 169.371094 147.914062 167.375 L 147.914062 159.722656 L 145.921875 159.390625 C 139.265625 158.726562 132.945312 156.730469 128.621094 154.402344 C 126.960938 153.738281 126.292969 151.742188 127.292969 150.078125 Z M 127.292969 150.078125 " fill-opacity="1" fill-rule="nonzero"/></g></svg>