<svg xmlns="http://www.w3.org/2000/svg" xmlns:xlink="http://www.w3.org/1999/xlink" width="500" zoomAndPan="magnify" viewBox="0 0 375 374.999991" height="500" preserveAspectRatio="xMidYMid meet" version="1.0"><defs><clipPath id="22ad499b0c"><path d="M 63.296875 37.5 L 324.296875 37.5 L 324.296875 337.5 L 63.296875 337.5 Z M 63.296875 37.5 " clip-rule="nonzero"/></clipPath></defs><g clip-path="url(#22ad499b0c)"><path fill="#000000" d="M 63.480469 73.445312 C 99.917969 70.546875 131.65625 54.621094 155.640625 37.5 L 232.015625 37.5 C 256.003906 54.621094 287.738281 70.546875 324.175781 73.445312 L 324.175781 187.332031 C 324.175781 260.816406 249.574219 322.5625 193.828125 337.5 C 138.082031 322.5625 63.480469 260.816406 63.480469 187.332031 Z M 145.832031 175.003906 L 172.824219 209.171875 C 175.421875 212.460938 180.195312 213.019531 183.480469 210.421875 C 183.71875 210.238281 183.9375 210.039062 184.144531 209.835938 L 184.167969 209.855469 L 241.261719 152.761719 C 244.238281 149.785156 244.238281 144.960938 241.261719 141.984375 C 238.285156 139.007812 233.460938 139.007812 230.484375 141.984375 L 179.421875 193.042969 L 157.738281 165.59375 C 155.140625 162.308594 150.371094 161.746094 147.082031 164.34375 C 143.792969 166.941406 143.234375 171.714844 145.832031 175.003906 Z M 193.828125 98.617188 C 151.136719 98.617188 116.527344 133.226562 116.527344 175.921875 C 116.527344 218.613281 151.136719 253.222656 193.828125 253.222656 C 236.523438 253.222656 271.132812 218.613281 271.132812 175.921875 C 271.132812 133.226562 236.523438 98.617188 193.828125 98.617188 Z M 193.828125 98.617188 " fill-opacity="1" fill-rule="evenodd"/></g></svg>