<svg xmlns="http://www.w3.org/2000/svg" xmlns:xlink="http://www.w3.org/1999/xlink" width="500" zoomAndPan="magnify" viewBox="0 0 375 374.999991" height="500" preserveAspectRatio="xMidYMid meet" version="1.0"><defs><clipPath id="a06ffdf253"><path d="M 146.742188 248.519531 L 177 248.519531 L 177 281.578125 L 146.742188 281.578125 Z M 146.742188 248.519531 " clip-rule="nonzero"/></clipPath><clipPath id="b000da9fdd"><path d="M 267.714844 95.097656 L 337.367188 95.097656 L 337.367188 192.9375 L 267.714844 192.9375 Z M 267.714844 95.097656 " clip-rule="nonzero"/></clipPath></defs><path fill="#000000" d="M 139.273438 230.933594 L 124.296875 251.050781 C 121.121094 255.316406 122.011719 261.402344 126.277344 264.578125 L 127.332031 265.363281 C 129.054688 266.644531 131.074219 267.265625 133.082031 267.265625 C 136.039062 267.265625 138.964844 265.921875 140.855469 263.378906 L 155.832031 243.261719 C 159.007812 239 158.117188 232.910156 153.851562 229.738281 L 152.796875 228.953125 C 151.074219 227.671875 149.050781 227.050781 147.046875 227.050781 C 144.089844 227.050781 141.164062 228.394531 139.273438 230.933594 " fill-opacity="1" fill-rule="nonzero"/><g clip-path="url(#a06ffdf253)"><path fill="#000000" d="M 158.738281 252.0625 L 148.527344 265.78125 C 145.691406 269.585938 146.488281 275.023438 150.296875 277.859375 L 153.011719 279.875 C 154.550781 281.023438 156.355469 281.578125 158.148438 281.578125 C 160.789062 281.578125 163.398438 280.375 165.085938 278.109375 L 175.300781 264.390625 C 178.132812 260.582031 177.335938 255.148438 173.53125 252.3125 L 170.816406 250.292969 C 169.277344 249.148438 167.472656 248.59375 165.679688 248.59375 C 163.039062 248.59375 160.429688 249.792969 158.738281 252.0625 " fill-opacity="1" fill-rule="nonzero"/></g><path fill="#000000" d="M 104.128906 207.269531 L 100.007812 204.207031 C 98.625 203.175781 97.003906 202.679688 95.394531 202.679688 C 93.023438 202.679688 90.675781 203.757812 89.15625 205.796875 L 82.285156 215.027344 C 79.738281 218.449219 80.453125 223.332031 83.875 225.878906 L 87.992188 228.945312 C 89.375 229.976562 91 230.472656 92.609375 230.472656 C 94.980469 230.472656 97.328125 229.394531 98.84375 227.355469 L 105.71875 218.125 C 108.265625 214.703125 107.550781 209.816406 104.128906 207.269531 " fill-opacity="1" fill-rule="nonzero"/><path fill="#000000" d="M 134.597656 208.699219 C 132.75 207.328125 130.589844 206.664062 128.441406 206.664062 C 125.28125 206.664062 122.148438 208.101562 120.128906 210.820312 L 101.851562 235.371094 C 98.457031 239.933594 99.410156 246.441406 103.972656 249.839844 C 105.816406 251.210938 107.976562 251.875 110.125 251.875 C 112.976562 251.875 115.800781 250.703125 117.8125 248.480469 C 118.117188 247.964844 118.449219 247.460938 118.8125 246.96875 L 127.492188 235.3125 L 133.792969 226.851562 C 134.222656 226.273438 134.695312 225.722656 135.199219 225.207031 L 136.714844 223.167969 C 140.113281 218.605469 139.15625 212.09375 134.597656 208.699219 " fill-opacity="1" fill-rule="nonzero"/><path fill="#000000" d="M 83.105469 94.144531 L 39.042969 172.992188 C 37.648438 175.488281 38.542969 178.648438 41.039062 180.042969 L 56.257812 188.546875 C 58.757812 189.945312 61.914062 189.050781 63.308594 186.550781 L 107.371094 107.707031 C 108.765625 105.207031 107.875 102.050781 105.375 100.65625 L 90.15625 92.148438 C 87.660156 90.753906 84.5 91.648438 83.105469 94.144531 " fill-opacity="1" fill-rule="nonzero"/><g clip-path="url(#b000da9fdd)"><path fill="#000000" d="M 268.378906 111.351562 L 312.441406 190.199219 C 313.835938 192.695312 316.996094 193.589844 319.492188 192.195312 L 334.710938 183.6875 C 337.210938 182.292969 338.101562 179.136719 336.707031 176.636719 L 292.648438 97.792969 C 291.25 95.292969 288.09375 94.398438 285.59375 95.796875 L 270.375 104.300781 C 267.875 105.699219 266.984375 108.855469 268.378906 111.351562 " fill-opacity="1" fill-rule="nonzero"/></g><path fill="#000000" d="M 286.363281 218.167969 C 286.484375 214.53125 284.78125 211.070312 281.878906 208.871094 L 259.011719 191.542969 C 250.75 185.71875 240.4375 179.046875 228.371094 171.710938 C 211.359375 161.367188 195.324219 152.417969 187.890625 148.332031 C 186.730469 147.691406 185.371094 147.523438 184.089844 147.859375 L 175.734375 150.050781 C 174.503906 150.375 173.433594 151.128906 172.71875 152.179688 L 172.710938 152.191406 C 170.394531 155.585938 167.816406 158.703125 165.050781 161.457031 C 161.800781 164.683594 158.355469 167.367188 154.804688 169.425781 C 150.546875 171.894531 146.164062 173.453125 141.777344 174.054688 C 140.808594 174.1875 139.832031 174.253906 138.875 174.253906 C 135.433594 174.253906 132.226562 173.371094 129.601562 171.703125 C 126.238281 169.5625 124.082031 166.425781 123.363281 162.632812 C 122.535156 158.25 123.671875 153.238281 126.835938 147.320312 C 129.0625 143.152344 131.84375 139.339844 133.875 136.558594 C 134.371094 135.875 134.804688 135.285156 135.148438 134.796875 C 136.546875 132.808594 138.175781 130.535156 140.003906 128.15625 C 140.46875 127.550781 139.976562 126.679688 139.214844 126.765625 C 135.378906 127.207031 126.699219 126.777344 113.042969 118.3125 C 111.832031 117.5625 110.234375 117.972656 109.539062 119.21875 L 71.6875 186.949219 C 70.894531 188.371094 71.085938 190.140625 72.167969 191.359375 L 82.203125 202.648438 C 82.34375 202.804688 82.5 202.941406 82.667969 203.066406 L 83.675781 201.710938 C 85.054688 199.859375 86.878906 198.34375 88.953125 197.332031 C 90.945312 196.355469 93.171875 195.84375 95.394531 195.84375 C 96.929688 195.84375 98.441406 196.082031 99.898438 196.554688 C 101.40625 197.042969 102.816406 197.773438 104.09375 198.722656 L 108.210938 201.789062 C 109.789062 202.960938 111.089844 204.414062 112.082031 206.109375 C 112.3125 206.507812 112.527344 206.914062 112.71875 207.328125 C 112.976562 207.882812 113.726562 207.960938 114.09375 207.472656 L 114.640625 206.734375 C 116.261719 204.554688 118.40625 202.773438 120.847656 201.582031 C 123.191406 200.433594 125.863281 199.828125 128.425781 199.828125 C 130.21875 199.828125 132.023438 200.109375 133.734375 200.664062 C 135.507812 201.238281 137.175781 202.097656 138.679688 203.214844 C 140.535156 204.597656 142.066406 206.308594 143.230469 208.300781 C 144.351562 210.214844 145.082031 212.300781 145.40625 214.503906 C 145.628906 216.035156 145.648438 217.566406 145.464844 219.078125 C 145.386719 219.699219 145.875 220.246094 146.5 220.222656 C 146.683594 220.21875 146.871094 220.214844 147.058594 220.214844 C 148.765625 220.214844 150.5 220.484375 152.140625 221.015625 C 153.847656 221.570312 155.4375 222.394531 156.878906 223.46875 L 157.933594 224.253906 C 163.089844 228.089844 165.359375 234.386719 164.335938 240.328125 C 164.203125 241.082031 164.796875 241.765625 165.5625 241.757812 C 165.605469 241.757812 165.644531 241.757812 165.6875 241.757812 C 167.3125 241.757812 168.914062 242.011719 170.457031 242.511719 C 172.054688 243.03125 173.546875 243.800781 174.898438 244.808594 L 177.613281 246.828125 C 184.464844 251.929688 185.882812 261.621094 180.78125 268.472656 L 179.445312 270.269531 C 178.816406 271.113281 178.964844 272.328125 179.816406 272.953125 C 179.964844 273.0625 180.125 273.148438 180.300781 273.210938 C 183.34375 274.289062 212.6875 284.257812 220.980469 270.273438 C 221.523438 269.351562 221.15625 268.160156 220.195312 267.6875 L 192.824219 254.304688 C 191.175781 253.496094 190.3125 251.613281 190.847656 249.859375 C 191.238281 248.578125 192.351562 247.417969 195.0625 247.300781 C 195.347656 247.289062 195.632812 247.355469 195.886719 247.488281 L 224.039062 262.175781 C 227.203125 263.828125 230.789062 264.515625 234.328125 264.078125 C 238.664062 263.542969 243.382812 261.308594 243.796875 254.226562 C 243.90625 252.367188 242.949219 250.605469 241.335938 249.667969 L 206.210938 229.203125 C 204.835938 228.402344 204.097656 226.839844 204.359375 225.273438 C 204.605469 223.808594 205.390625 222.316406 207.546875 222.238281 C 208.253906 222.210938 208.949219 222.398438 209.5625 222.753906 L 246.472656 244.207031 C 248.328125 245.285156 250.453125 245.808594 252.59375 245.710938 C 256.285156 245.539062 261.671875 244.417969 263.800781 239.609375 C 265.671875 235.382812 264.023438 230.421875 260.058594 228.042969 L 219.644531 203.792969 C 218.449219 203.078125 217.746094 201.753906 217.839844 200.367188 C 217.960938 198.535156 218.886719 196.460938 222.644531 197.0625 C 223.097656 197.132812 223.535156 197.296875 223.933594 197.535156 L 269.84375 224.902344 C 273.253906 226.933594 277.441406 227.273438 281.089844 225.707031 C 283.808594 224.542969 286.222656 222.335938 286.363281 218.167969 " fill-opacity="1" fill-rule="nonzero"/><path fill="#000000" d="M 303.144531 188.640625 L 264.828125 120.074219 C 264.519531 119.527344 263.878906 119.269531 263.277344 119.445312 C 260.527344 120.265625 257.085938 121.097656 256.585938 121.160156 C 255.109375 121.34375 253.621094 121.429688 252.136719 121.429688 C 247.089844 121.429688 242.046875 120.429688 237.285156 118.792969 C 226.179688 114.980469 212.378906 113.878906 200.066406 113.878906 C 190.957031 113.878906 182.667969 114.480469 176.882812 115.027344 C 172.121094 115.472656 167.492188 115.820312 162.878906 117.183594 C 158.539062 118.464844 154.828125 121.421875 151.800781 124.695312 C 151 125.5625 150.21875 126.449219 149.445312 127.347656 C 146.339844 130.976562 143.472656 134.84375 140.738281 138.730469 C 136.734375 144.421875 123.949219 160 133.273438 165.933594 C 134.929688 166.988281 136.902344 167.417969 138.875 167.417969 C 139.539062 167.417969 140.199219 167.367188 140.851562 167.28125 C 148.3125 166.257812 154.996094 161.808594 160.226562 156.605469 C 162.765625 154.082031 165.046875 151.292969 167.0625 148.339844 C 167.410156 147.832031 168.78125 144.804688 169.363281 144.652344 L 182.164062 141.296875 L 186.445312 140.175781 C 186.558594 140.144531 186.675781 140.128906 186.792969 140.128906 C 187.019531 140.128906 187.242188 140.1875 187.445312 140.296875 C 194.042969 143.875 251.582031 175.429688 284.597656 203.925781 C 284.601562 203.925781 284.601562 203.929688 284.605469 203.933594 C 285.058594 204.324219 285.730469 204.320312 286.195312 203.941406 L 303.066406 190.066406 C 303.363281 189.644531 303.394531 189.089844 303.144531 188.640625 " fill-opacity="1" fill-rule="nonzero"/></svg>