<svg xmlns="http://www.w3.org/2000/svg" xmlns:xlink="http://www.w3.org/1999/xlink" width="500" zoomAndPan="magnify" viewBox="0 0 375 374.999991" height="500" preserveAspectRatio="xMidYMid meet" version="1.0"><defs><clipPath id="6b3feb593d"><path d="M 37.5 113 L 337.5 113 L 337.5 299 L 37.5 299 Z M 37.5 113 " clip-rule="nonzero"/></clipPath></defs><g clip-path="url(#6b3feb593d)"><path fill="#000000" d="M 337.433594 124.007812 C 337.433594 125.722656 337.433594 127.4375 337.433594 129.148438 C 334.476562 133.714844 329.425781 135.792969 325.480469 139.183594 C 314.523438 145.175781 303.082031 149.226562 290.320312 148.082031 C 289.75 148.039062 289.183594 148.003906 288.613281 147.960938 C 285.039062 146.894531 281.46875 145.820312 277.710938 144.695312 C 278.226562 148.441406 278.539062 151.945312 279.226562 155.378906 C 280.554688 162.027344 280.726562 168.867188 282.566406 175.429688 C 282.605469 176 282.648438 176.570312 282.6875 177.136719 C 282.699219 178.609375 282.476562 180.117188 283.421875 181.429688 C 283.523438 183.199219 283.082031 185.03125 283.988281 186.71875 C 284.089844 186.988281 284.195312 187.257812 284.304688 187.523438 L 284.230469 187.492188 C 284.394531 189.027344 284.378906 190.609375 284.746094 192.097656 C 287.132812 201.644531 289.476562 211.199219 292.082031 220.6875 C 294 227.675781 294.898438 234.949219 297.921875 241.632812 C 297.445312 243.980469 299.160156 245.96875 299.023438 248.261719 C 298.867188 248.84375 299.144531 249.183594 299.644531 249.410156 C 299.710938 249.878906 299.785156 250.351562 299.855469 250.820312 C 302.679688 261.953125 305.503906 273.082031 308.324219 284.210938 C 308.324219 285.074219 308.324219 285.941406 308.324219 286.804688 C 307.429688 290.175781 305.878906 293.15625 303.214844 295.488281 C 302.335938 295.992188 301.453125 296.492188 300.570312 296.992188 C 291.015625 298.882812 285.570312 295.273438 283.398438 285.769531 C 282.75 282.917969 281.785156 280.144531 280.964844 277.335938 C 280.574219 272.898438 279.027344 268.738281 277.859375 264.488281 C 276.78125 259.589844 275.789062 254.667969 274.039062 249.953125 C 272.644531 243.015625 271.085938 236.121094 268.820312 229.40625 C 267.558594 223.5625 266.890625 217.542969 263.839844 212.210938 C 263.773438 211.367188 263.714844 210.523438 263.648438 209.675781 C 263.832031 208.648438 263.804688 207.675781 262.976562 206.890625 C 262.867188 206.101562 262.753906 205.304688 262.640625 204.515625 C 262.570312 204.226562 262.503906 203.9375 262.433594 203.648438 C 262.65625 203.210938 262.4375 203.101562 262.039062 203.121094 C 256.445312 202.757812 256.441406 202.757812 256.441406 208.058594 C 256.4375 233.039062 256.414062 258.011719 256.464844 282.992188 C 256.472656 286.480469 256.054688 289.792969 254.183594 292.804688 C 252.457031 294.429688 250.703125 296.019531 248.476562 296.960938 L 248.625 297.085938 L 248.554688 297.039062 L 248.347656 297.148438 C 248.054688 297.195312 247.769531 297.242188 247.480469 297.289062 C 247.210938 297.351562 246.933594 297.425781 246.664062 297.492188 C 238.261719 298.632812 232.054688 293.21875 232.046875 284.617188 C 232.019531 257.273438 232.257812 229.929688 231.917969 202.59375 C 231.796875 192.867188 229.675781 183.257812 227.808594 173.6875 C 227.757812 173.117188 227.707031 172.546875 227.65625 171.976562 C 227.359375 169.976562 227.066406 167.984375 226.769531 165.988281 C 226.945312 164.84375 227.007812 163.714844 226.40625 162.660156 C 225.492188 157.753906 225.882812 152.59375 223.585938 147.953125 C 223.542969 146.824219 223.507812 145.695312 223.472656 144.5625 C 223.398438 144.300781 223.320312 144.035156 223.25 143.769531 C 222.339844 141.398438 219.28125 140.515625 219.050781 137.683594 C 221.660156 135.851562 224.269531 134.023438 227.769531 131.566406 C 223.433594 132.179688 221.226562 134.542969 218.570312 135.992188 C 215.117188 137.878906 213.96875 140.539062 213.984375 144.609375 C 214.167969 191.277344 214.125 237.945312 214.132812 284.617188 C 214.132812 291.945312 209.972656 297.210938 203.644531 297.980469 C 196.734375 298.828125 191.851562 295.164062 189.855469 287.644531 C 189.871094 262.027344 189.898438 236.410156 189.875 210.792969 C 189.875 209.925781 190.480469 208.773438 189.203125 208.183594 C 185.988281 207.164062 184.785156 208.335938 185.121094 211.652344 C 185.335938 213.765625 185.109375 215.917969 185.109375 218.054688 C 185.125 240.121094 185.101562 262.1875 185.203125 284.257812 C 185.222656 288.75 184.289062 292.648438 180.527344 295.476562 C 172.894531 301.226562 164.355469 297.851562 160.800781 287.675781 C 160.789062 287.375 160.773438 287.074219 160.761719 286.773438 C 160.800781 285.351562 160.871094 283.925781 160.875 282.503906 C 160.898438 236.277344 160.910156 190.054688 160.929688 143.832031 C 160.929688 138.5625 154.769531 132.84375 149.300781 132.957031 C 151.273438 134.433594 154.003906 135.550781 155.148438 137.566406 C 156.882812 140.617188 152.566406 141.398438 151.695312 143.660156 C 151.496094 144.1875 151.261719 144.726562 151.1875 145.28125 C 150.4375 150.75 149.023438 156.132812 149.011719 161.699219 C 148.945312 162.253906 148.875 162.804688 148.808594 163.359375 C 148.203125 163.816406 148.148438 164.4375 148.28125 165.117188 C 148.191406 166.257812 148.097656 167.390625 148.003906 168.527344 C 147.308594 169.585938 147.222656 170.761719 147.359375 171.976562 C 147.304688 172.550781 147.257812 173.117188 147.207031 173.6875 C 145.753906 179.023438 145.265625 184.496094 144.757812 189.972656 C 144.695312 190.535156 144.636719 191.09375 144.574219 191.65625 C 143.949219 192.421875 143.8125 193.296875 143.992188 194.246094 C 143.902344 195.378906 143.808594 196.515625 143.71875 197.648438 C 142.964844 198.617188 142.960938 199.765625 142.964844 200.898438 C 143 213.535156 143.039062 226.167969 143.085938 238.804688 C 143.085938 243.09375 143.085938 247.386719 143.085938 251.679688 C 143.085938 255.953125 143.085938 260.226562 143.085938 264.507812 C 143.085938 268.796875 143.085938 273.085938 143.085938 277.378906 C 142.566406 281.640625 143.640625 286.007812 142.207031 290.207031 C 142.007812 290.402344 141.953125 290.632812 142.039062 290.898438 C 139.171875 295.164062 135.253906 297.636719 130.058594 297.945312 C 129.519531 297.785156 128.976562 297.621094 128.433594 297.460938 C 127.839844 297.363281 127.246094 297.257812 126.652344 297.15625 C 120.722656 294.261719 118.628906 289.566406 118.761719 282.972656 C 119.085938 266.871094 118.867188 250.757812 118.867188 234.652344 C 118.867188 225.101562 118.808594 215.554688 118.914062 206.007812 C 118.933594 204.027344 118.324219 203.019531 116.371094 202.976562 C 114.925781 202.945312 112.871094 201.914062 112.40625 204.136719 C 111.78125 207.136719 110.023438 209.886719 110.363281 213.097656 C 108.875 217.285156 107.695312 221.550781 107.054688 225.949219 C 106.855469 226.195312 106.820312 226.460938 106.953125 226.75 C 106.8125 227.019531 106.675781 227.289062 106.539062 227.554688 C 106.367188 228.441406 106.195312 229.320312 106.023438 230.210938 C 102.773438 241.25 99.867188 252.378906 97.542969 263.652344 C 95.800781 268.066406 94.789062 272.667969 94.039062 277.335938 C 92.609375 282.183594 91.175781 287.035156 89.742188 291.882812 L 89.777344 291.835938 C 85.757812 296.796875 80.78125 298.929688 74.433594 297.035156 L 74.464844 297.050781 C 74.183594 296.851562 73.898438 296.664062 73.617188 296.464844 C 72.351562 295.496094 71.082031 294.535156 69.816406 293.570312 C 69.625 293.363281 69.4375 293.152344 69.246094 292.945312 L 69.148438 292.8125 C 68.90625 292.503906 68.667969 292.195312 68.429688 291.882812 C 68.308594 291.585938 68.183594 291.289062 68.058594 290.992188 C 67.894531 290.730469 67.730469 290.472656 67.570312 290.210938 L 67.566406 290.210938 C 66.011719 285.824219 67.671875 281.628906 68.328125 277.375 C 68.53125 277.132812 68.570312 276.867188 68.441406 276.574219 C 68.578125 276.304688 68.71875 276.035156 68.851562 275.765625 C 68.949219 272.445312 71.210938 269.640625 71.082031 266.269531 C 73.023438 261.269531 73.980469 256.015625 75.160156 250.816406 C 77.246094 242.550781 79.335938 234.285156 81.421875 226.019531 C 83.015625 220.082031 84.679688 214.160156 86.195312 208.199219 C 88.925781 197.449219 91.949219 186.75 92.480469 175.570312 C 93.683594 173.664062 93.238281 171.515625 93.359375 169.449219 C 94.148438 168.410156 94.171875 167.222656 94.007812 166 C 94.074219 165.441406 94.148438 164.882812 94.210938 164.320312 C 94.9375 160.164062 95.597656 156 96.394531 151.859375 C 97.699219 145.082031 97.476562 144.789062 90.804688 146.742188 C 89.339844 147.167969 87.609375 146.660156 86.398438 147.960938 C 85.828125 148 85.257812 148.039062 84.691406 148.078125 C 72.324219 149.066406 61.066406 145.585938 50.445312 139.566406 C 50.253906 139.351562 50.023438 139.285156 49.746094 139.367188 C 49.078125 138.429688 48.117188 137.941406 47.050781 137.621094 L 47.097656 137.660156 C 46.496094 136.691406 45.539062 136.226562 44.523438 135.851562 L 44.582031 135.90625 C 42.101562 133.800781 39.390625 131.945312 37.582031 129.148438 C 37.582031 127.433594 37.582031 125.71875 37.582031 124.007812 C 40.398438 119.574219 44.179688 117.839844 49.289062 119.828125 C 50.730469 121.726562 52.699219 122.925781 54.78125 123.976562 C 61.421875 128.789062 68.554688 132.425781 76.945312 132.703125 C 79.601562 132.789062 81.367188 133.484375 82.347656 136.199219 C 82.976562 137.949219 84.6875 138.925781 86.507812 139.632812 C 91.519531 141.585938 99.140625 138.296875 102.867188 131.765625 C 99.515625 133.882812 96.917969 135.488281 94.351562 137.144531 C 92.203125 138.53125 90.042969 139.023438 87.527344 138.011719 C 81.523438 135.597656 80.988281 129.355469 86.398438 124 C 87.585938 123.226562 88.773438 122.449219 89.960938 121.675781 C 95.152344 119.089844 100.1875 116.226562 105.738281 114.335938 C 108.398438 113.425781 109.566406 113.703125 111.007812 116.320312 C 119.03125 130.859375 137.765625 133.304688 149.351562 121.539062 C 151.429688 119.429688 152.699219 114.953125 157.085938 118.636719 C 157.320312 118.835938 158.480469 117.894531 159.238281 117.527344 C 161.78125 116.296875 164.359375 115.121094 166.890625 113.863281 C 168.882812 112.871094 170.292969 113.167969 172.117188 114.730469 C 180.617188 122 192.886719 122.597656 201.625 115.699219 C 204.773438 113.214844 207.0625 113.40625 210.226562 114.730469 C 213.667969 116.175781 216.632812 119.753906 221.121094 117.277344 C 222.402344 116.570312 222.875 118.230469 223.554688 119.09375 C 234.992188 133.613281 255.445312 132.023438 264.34375 115.789062 C 265.578125 113.539062 266.632812 113.363281 268.640625 114.171875 C 272.035156 115.539062 275.476562 116.796875 278.890625 118.101562 C 282.128906 120.070312 285.367188 122.039062 288.601562 124.007812 C 289.09375 124.511719 289.585938 125.011719 290.074219 125.515625 C 293.007812 128.515625 293.378906 132.289062 291.050781 135.445312 C 288.636719 138.71875 284.523438 139.492188 280.847656 137.273438 C 278.542969 135.886719 276.382812 134.246094 274.015625 132.976562 C 272.851562 132.351562 271.675781 130.84375 269.863281 132.03125 C 273.214844 134.324219 276.363281 136.632812 279.660156 138.699219 C 284.367188 141.660156 290.453125 140.773438 292.609375 136.195312 C 294.035156 133.179688 296.074219 132.890625 298.554688 132.726562 C 306.757812 132.175781 313.738281 128.664062 320.261719 123.988281 C 320.585938 123.761719 320.914062 123.535156 321.242188 123.308594 C 323.238281 122.007812 325.230469 120.710938 327.226562 119.414062 C 327.578125 119.257812 327.929688 119.097656 328.28125 118.9375 C 329.332031 118.925781 330.382812 118.914062 331.433594 118.898438 C 334.152344 119.742188 335.804688 121.859375 337.433594 124.007812 Z M 337.433594 124.007812 " fill-opacity="1" fill-rule="evenodd"/></g><path fill="#000000" d="M 222.535156 95.746094 C 226.34375 88.433594 232.332031 84.101562 240.429688 82.652344 C 240.867188 82.625 241.304688 82.601562 241.738281 82.570312 C 242.21875 82.59375 242.703125 82.613281 243.183594 82.632812 C 253.78125 83.140625 260.492188 88.882812 264.421875 98.378906 C 266.351562 108.09375 264.226562 116.539062 256.058594 122.648438 C 245.09375 130.851562 228.328125 127.765625 221.707031 112.03125 C 221.789062 111.445312 221.429688 111.199219 220.949219 111.046875 C 220.976562 110.789062 220.941406 110.539062 220.851562 110.292969 C 220.984375 105.394531 220.460938 100.417969 222.535156 95.746094 Z M 222.535156 95.746094 " fill-opacity="1" fill-rule="evenodd"/><path fill="#000000" d="M 183.269531 74.335938 C 183.539062 74.296875 183.808594 74.257812 184.082031 74.210938 C 192.691406 73.503906 199.796875 76.472656 205.464844 82.960938 C 205.664062 83.25 205.867188 83.542969 206.0625 83.832031 C 208.371094 88.074219 209.808594 92.5625 209.855469 97.4375 C 209.796875 98.285156 209.742188 99.132812 209.679688 99.980469 C 209.023438 100.734375 208.84375 101.609375 209.015625 102.574219 C 205.90625 110.585938 200.683594 116.304688 191.921875 117.996094 C 181.175781 120.070312 171.402344 114.875 167.042969 104.894531 C 166.710938 104.125 166.351562 103.367188 166.007812 102.601562 C 166.121094 101.632812 165.988281 100.734375 165.3125 99.976562 C 165.253906 99.132812 165.195312 98.285156 165.136719 97.4375 C 165.863281 85.164062 171.082031 78.511719 183.269531 74.335938 Z M 183.269531 74.335938 " fill-opacity="1" fill-rule="evenodd"/><path fill="#000000" d="M 127.523438 82.835938 C 130.664062 82.863281 133.804688 82.890625 136.941406 82.914062 C 139.144531 83.804688 141.347656 84.6875 143.550781 85.578125 C 147.023438 88.242188 149.960938 91.386719 152.253906 95.121094 C 152.917969 97.605469 153.578125 100.089844 154.242188 102.574219 C 153.695312 114.804688 148.914062 122.40625 139.707031 125.6875 C 129.734375 129.238281 118.144531 125.15625 113.085938 116.308594 C 107.46875 106.480469 109.554688 94.644531 118.148438 87.578125 C 119.007812 86.871094 119.886719 86.1875 120.757812 85.492188 C 123.007812 84.605469 125.261719 83.71875 127.523438 82.835938 Z M 127.523438 82.835938 " fill-opacity="1" fill-rule="evenodd"/></svg>