<svg xmlns="http://www.w3.org/2000/svg" xmlns:xlink="http://www.w3.org/1999/xlink" width="500" zoomAndPan="magnify" viewBox="0 0 375 374.999991" height="500" preserveAspectRatio="xMidYMid meet" version="1.0"><defs><clipPath id="d9fc4763c4"><path d="M 37.519531 195 L 337.480469 195 L 337.480469 320.8125 L 37.519531 320.8125 Z M 37.519531 195 " clip-rule="nonzero"/></clipPath><clipPath id="e078ef1b11"><path d="M 204 54.5625 L 260 54.5625 L 260 110 L 204 110 Z M 204 54.5625 " clip-rule="nonzero"/></clipPath></defs><g clip-path="url(#d9fc4763c4)"><path fill="#040606" d="M 309.144531 223.980469 C 300.625 227.128906 287.042969 230.621094 271.917969 234.089844 C 266.539062 242.941406 256.765625 250.195312 241.292969 253.050781 C 237.832031 253.691406 233.730469 254.011719 229.308594 254.304688 C 218.578125 254.625 205.953125 253.371094 192.054688 252.410156 C 191.121094 252.410156 190.164062 252.410156 189.230469 252.117188 C 185.742188 251.796875 182.917969 249.261719 182.601562 245.796875 C 182.28125 241.371094 185.742188 237.875 189.84375 238.515625 C 190.800781 238.515625 192.054688 238.835938 193.011719 238.835938 C 211.015625 240.410156 228.058594 241.984375 238.761719 239.769531 C 258.65625 235.984375 264.328125 223.980469 263.078125 213.847656 C 262.117188 205.636719 255.804688 197.742188 246.03125 198.382812 C 232.132812 199.316406 215.726562 198.382812 199.644531 197.101562 C 181.320312 195.847656 162.707031 195.207031 149.125 196.808594 C 134.320312 198.382812 104.335938 209.449219 77.8125 227.449219 C 64.867188 236.300781 50.355469 246.730469 41.515625 253.371094 C 37.09375 256.542969 36.160156 262.863281 39.621094 267.265625 L 78.449219 317.210938 C 81.59375 321.640625 87.902344 322.277344 92.324219 319.105469 L 106.519531 308.039062 C 110.007812 305.503906 114.425781 304.570312 118.207031 305.824219 C 144.09375 314.039062 171.867188 319.425781 189.84375 320.359375 C 229.308594 322.253906 305.363281 275.503906 327.121094 260.332031 C 348.90625 245.476562 333.140625 214.808594 309.144531 223.980469 " fill-opacity="1" fill-rule="nonzero"/></g><path fill="#040606" d="M 218.871094 147.792969 C 218.871094 162.992188 206.59375 175.3125 191.441406 175.3125 C 176.261719 175.3125 163.957031 162.992188 163.957031 147.792969 C 163.957031 132.617188 176.261719 120.296875 191.441406 120.296875 C 206.59375 120.296875 218.871094 132.617188 218.871094 147.792969 " fill-opacity="1" fill-rule="nonzero"/><path fill="#040606" d="M 300.945312 147.792969 C 300.945312 162.992188 288.667969 175.3125 273.488281 175.3125 C 258.335938 175.3125 246.03125 162.992188 246.03125 147.792969 C 246.03125 132.617188 258.335938 120.296875 273.488281 120.296875 C 288.667969 120.296875 300.945312 132.617188 300.945312 147.792969 " fill-opacity="1" fill-rule="nonzero"/><g clip-path="url(#e078ef1b11)"><path fill="#040606" d="M 259.90625 82.058594 C 259.90625 97.257812 247.628906 109.550781 232.453125 109.550781 C 217.300781 109.550781 204.996094 97.257812 204.996094 82.058594 C 204.996094 66.882812 217.300781 54.5625 232.453125 54.5625 C 247.628906 54.5625 259.90625 66.882812 259.90625 82.058594 " fill-opacity="1" fill-rule="nonzero"/></g></svg>