<svg xmlns="http://www.w3.org/2000/svg" xmlns:xlink="http://www.w3.org/1999/xlink" width="500" zoomAndPan="magnify" viewBox="0 0 375 374.999991" height="500" preserveAspectRatio="xMidYMid meet" version="1.0"><defs><clipPath id="22bb743d9a"><path d="M 50 38 L 323 38 L 323 337.5 L 50 337.5 Z M 50 38 " clip-rule="nonzero"/></clipPath></defs><g clip-path="url(#22bb743d9a)"><path fill="#1a1918" d="M 257.925781 255.707031 C 257.425781 256.15625 256.707031 256.40625 255.660156 256.523438 C 254.859375 256.589844 253.742188 256.621094 252.328125 256.621094 C 251.128906 256.621094 250.195312 256.605469 249.511719 256.554688 C 248.761719 256.507812 248.160156 256.40625 247.710938 256.257812 C 247.128906 256.105469 246.664062 255.824219 246.347656 255.472656 C 246.078125 255.175781 245.878906 254.824219 245.695312 254.425781 L 237.816406 239.285156 L 229.917969 254.507812 C 229.734375 254.875 229.519531 255.207031 229.285156 255.472656 C 228.96875 255.824219 228.503906 256.105469 227.902344 256.273438 C 227.453125 256.40625 226.855469 256.507812 226.085938 256.554688 C 225.386719 256.605469 224.472656 256.621094 223.339844 256.621094 C 222.007812 256.621094 220.988281 256.589844 220.257812 256.523438 C 219.257812 256.40625 218.539062 256.125 218.109375 255.625 C 217.742188 255.242188 217.375 254.507812 217.707031 253.363281 C 217.875 252.761719 218.207031 252.015625 218.722656 251.082031 L 229.835938 230.832031 L 219.523438 211.851562 C 219.039062 210.867188 218.707031 210.121094 218.539062 209.519531 C 218.140625 208.238281 218.691406 207.492188 219.058594 207.15625 C 219.523438 206.726562 220.238281 206.476562 221.289062 206.390625 C 222.074219 206.324219 223.1875 206.292969 224.621094 206.292969 C 225.820312 206.292969 226.753906 206.324219 227.453125 206.375 C 228.21875 206.425781 228.835938 206.527344 229.285156 206.660156 C 229.917969 206.839844 230.386719 207.109375 230.703125 207.492188 C 230.917969 207.773438 231.101562 208.074219 231.285156 208.4375 L 238.617188 222.214844 L 245.746094 208.421875 C 245.914062 208.074219 246.113281 207.757812 246.328125 207.492188 C 246.628906 207.125 247.078125 206.839844 247.644531 206.660156 C 248.113281 206.527344 248.679688 206.425781 249.378906 206.375 C 250.027344 206.324219 250.925781 206.292969 252.058594 206.292969 C 253.34375 206.292969 254.34375 206.324219 255.074219 206.390625 C 256.074219 206.492188 256.792969 206.757812 257.257812 207.222656 C 257.589844 207.539062 258.089844 208.273438 257.757812 209.503906 C 257.609375 210.085938 257.308594 210.835938 256.859375 211.800781 L 246.527344 230.734375 L 257.539062 251.097656 C 258.023438 252.03125 258.339844 252.777344 258.492188 253.394531 C 258.824219 254.644531 258.273438 255.375 257.925781 255.707031 Z M 206.679688 255.742188 C 206.210938 256.191406 205.511719 256.441406 204.5625 256.539062 C 203.832031 256.589844 202.863281 256.621094 201.613281 256.621094 C 200.332031 256.621094 199.347656 256.605469 198.632812 256.574219 C 197.851562 256.539062 197.234375 256.441406 196.765625 256.304688 C 196.132812 256.125 195.683594 255.839844 195.382812 255.441406 C 195.167969 255.125 194.984375 254.757812 194.851562 254.308594 L 191.917969 245.558594 L 175.675781 245.558594 L 172.914062 254.058594 C 172.800781 254.476562 172.617188 254.890625 172.382812 255.226562 C 172.089844 255.65625 171.644531 255.992188 171.070312 256.207031 C 170.597656 256.390625 170 256.488281 169.238281 256.554688 C 167.835938 256.671875 165.101562 256.65625 163.808594 256.507812 C 162.855469 256.40625 162.183594 256.105469 161.746094 255.589844 C 161.421875 255.226562 161.066406 254.542969 161.21875 253.476562 C 161.304688 252.894531 161.5 252.148438 161.820312 251.214844 L 176.515625 208.988281 C 176.707031 208.4375 176.933594 208.007812 177.203125 207.65625 C 177.546875 207.207031 178.054688 206.875 178.714844 206.660156 C 179.242188 206.492188 179.921875 206.390625 180.789062 206.359375 C 181.5625 206.324219 182.589844 206.292969 183.863281 206.292969 C 185.332031 206.292969 186.503906 206.324219 187.371094 206.359375 C 188.335938 206.390625 189.070312 206.492188 189.636719 206.660156 C 190.371094 206.859375 190.917969 207.191406 191.285156 207.671875 C 191.570312 208.039062 191.800781 208.523438 191.984375 209.121094 L 206.710938 251.296875 C 207.046875 252.246094 207.230469 252.996094 207.328125 253.59375 C 207.480469 254.726562 207.0625 255.390625 206.679688 255.742188 Z M 153.066406 213.597656 C 152.992188 214.210938 152.875 214.695312 152.714844 215.109375 C 152.515625 215.59375 152.246094 215.976562 151.910156 216.242188 C 151.523438 216.558594 151.066406 216.726562 150.582031 216.726562 L 139.796875 216.726562 L 139.796875 253.945312 C 139.796875 254.441406 139.625 254.925781 139.292969 255.324219 C 139 255.691406 138.554688 255.972656 137.980469 256.171875 C 137.550781 256.304688 136.984375 256.421875 136.265625 256.507812 C 135.597656 256.589844 134.773438 256.621094 133.789062 256.621094 C 132.804688 256.621094 131.980469 256.589844 131.320312 256.507812 C 130.59375 256.421875 130.019531 256.304688 129.597656 256.171875 C 129.019531 255.972656 128.574219 255.691406 128.273438 255.324219 C 127.953125 254.925781 127.777344 254.441406 127.777344 253.945312 L 127.777344 216.726562 L 116.996094 216.726562 C 116.46875 216.726562 115.992188 216.542969 115.613281 216.226562 C 115.308594 215.960938 115.058594 215.59375 114.859375 215.109375 C 114.699219 214.695312 114.582031 214.210938 114.507812 213.597656 C 114.445312 213.0625 114.410156 212.398438 114.410156 211.632812 C 114.410156 210.851562 114.445312 210.167969 114.507812 209.621094 C 114.582031 209.003906 114.699219 208.503906 114.859375 208.105469 C 115.058594 207.605469 115.320312 207.222656 115.660156 206.957031 C 116.027344 206.675781 116.492188 206.527344 116.996094 206.527344 L 150.582031 206.527344 C 151.042969 206.527344 151.488281 206.675781 151.867188 206.941406 C 152.226562 207.207031 152.511719 207.589844 152.71875 208.105469 C 152.875 208.503906 152.992188 209.003906 153.066406 209.621094 C 153.132812 210.167969 153.167969 210.851562 153.167969 211.632812 C 153.167969 212.398438 153.132812 213.0625 153.066406 213.597656 Z M 309.769531 285.023438 C 307.386719 283.558594 306.601562 280.8125 306.652344 278.035156 C 308.902344 159.449219 247.5625 122.589844 215.425781 100.574219 C 214.777344 100.117188 214.410156 99.347656 213.960938 98.707031 C 212.210938 96.140625 212.394531 92.707031 214.210938 90.1875 L 242.582031 60.15625 C 245.128906 56.636719 244.261719 51.566406 240.515625 49.359375 C 235.382812 46.328125 227.019531 44.21875 215.558594 50.347656 C 212.078125 52.210938 207.796875 51.15625 205.613281 47.863281 C 202.398438 43.035156 196.515625 37.496094 186.503906 38.054688 C 176.488281 37.496094 170.601562 43.035156 167.402344 47.863281 C 165.21875 51.15625 160.929688 52.210938 157.445312 50.347656 C 145.992188 44.21875 137.628906 46.328125 132.496094 49.359375 C 128.746094 51.566406 127.882812 56.636719 130.433594 60.15625 L 159.273438 90.851562 C 161.5 93.925781 160.914062 98.207031 157.941406 100.570312 C 108.917969 125.964844 59.324219 172.335938 66.078125 274.339844 C 66.410156 279.3125 64.207031 284.15625 60.171875 287.082031 C 52.179688 292.875 42.636719 303.554688 60.3125 314.269531 C 60.722656 314.554688 61.136719 314.734375 61.546875 314.867188 C 67.816406 317.25 113.636719 335.300781 186.230469 337.496094 L 186.769531 337.496094 C 259.375 335.300781 305.1875 317.25 311.46875 314.867188 C 311.867188 314.734375 312.285156 314.554688 312.699219 314.269531 C 332.742188 302.109375 317.78125 289.996094 309.769531 285.019531 " fill-opacity="1" fill-rule="nonzero"/></g><path fill="#1a1918" d="M 178.570312 235.824219 L 188.902344 235.824219 L 183.734375 220.335938 Z M 178.570312 235.824219 " fill-opacity="1" fill-rule="nonzero"/></svg>